<svg xmlns="http://www.w3.org/2000/svg" width="1039.059" height="1171.622" viewBox="0 0 1039.059 1171.622">
  <g id="Group_2" data-name="Group 2" transform="translate(-1159.221 -609.189)">
    <path id="Path_5" data-name="Path 5" d="M9673,1708.155l274.513,160.687,278.767-160.687-90.148-52.2-156.72,90.148-102.629-61.024,259.349-145.624,296.8,168.7-485.414,280.654L9466.26,1708.155l481.253-276.878,102.631,58.25Z" transform="translate(-8271.539 -822.088)" fill="#5d5ed4"/>
    <path id="Path_6" data-name="Path 6" d="M9430.514,1848.668v557.6l482.327,281.54V2352.176l-259.35-158.106v119.273l160.88,92.922v105.4l-280.153-159.493v-321.76l378.623,216.356v-116.5Z" transform="translate(-8271.293 -906.994)" fill="#a9a8f5"/>
    <path id="Path_7" data-name="Path 7" d="M9990.32,2127.5s-9.895,565.854,0,563.08,482.827-282.927,482.827-282.927v-169.2l-101.244,61.023V2349.4L10093.138,2508.9V2189.909l278.766-162.267v51.315l101.244-59.636V1848.733Z" transform="translate(-8274.868 -909.778)" fill="#000054"/>
  </g>
</svg>
